<svg id="visual" viewBox="0 0 960 300" width="960" height="300" xmlns="http://www.w3.org/2000/svg" xmlns:xlink="http://www.w3.org/1999/xlink" version="1.1"><rect x="0" y="0" width="960" height="300" fill="#202731"></rect><path d="M0 206L22.8 203.3C45.7 200.7 91.3 195.3 137 203.2C182.7 211 228.3 232 274 236C319.7 240 365.3 227 411.2 218.8C457 210.7 503 207.3 548.8 203.2C594.7 199 640.3 194 686 198.8C731.7 203.7 777.3 218.3 823 223.8C868.7 229.3 914.3 225.7 937.2 223.8L960 222L960 0L937.2 0C914.3 0 868.7 0 823 0C777.3 0 731.7 0 686 0C640.3 0 594.7 0 548.8 0C503 0 457 0 411.2 0C365.3 0 319.7 0 274 0C228.3 0 182.7 0 137 0C91.3 0 45.7 0 22.8 0L0 0Z" fill="#ff6f61"></path><path d="M0 168L22.8 167.8C45.7 167.7 91.3 167.3 137 168.5C182.7 169.7 228.3 172.3 274 168.2C319.7 164 365.3 153 411.2 147.3C457 141.7 503 141.3 548.8 147.2C594.7 153 640.3 165 686 170.8C731.7 176.7 777.3 176.3 823 171.2C868.7 166 914.3 156 937.2 151L960 146L960 0L937.2 0C914.3 0 868.7 0 823 0C777.3 0 731.7 0 686 0C640.3 0 594.7 0 548.8 0C503 0 457 0 411.2 0C365.3 0 319.7 0 274 0C228.3 0 182.7 0 137 0C91.3 0 45.7 0 22.8 0L0 0Z" fill="#f46051"></path><path d="M0 118L22.8 118.3C45.7 118.7 91.3 119.3 137 114.3C182.7 109.3 228.3 98.7 274 100C319.7 101.3 365.3 114.7 411.2 118.2C457 121.7 503 115.3 548.8 112.2C594.7 109 640.3 109 686 113.7C731.7 118.3 777.3 127.7 823 131.8C868.7 136 914.3 135 937.2 134.5L960 134L960 0L937.2 0C914.3 0 868.7 0 823 0C777.3 0 731.7 0 686 0C640.3 0 594.7 0 548.8 0C503 0 457 0 411.2 0C365.3 0 319.7 0 274 0C228.3 0 182.7 0 137 0C91.3 0 45.7 0 22.8 0L0 0Z" fill="#e85041"></path><path d="M0 77L22.8 71.2C45.7 65.3 91.3 53.7 137 53.2C182.7 52.7 228.3 63.3 274 65.8C319.7 68.3 365.3 62.7 411.2 62.3C457 62 503 67 548.8 62.5C594.7 58 640.3 44 686 44.5C731.7 45 777.3 60 823 65C868.7 70 914.3 65 937.2 62.5L960 60L960 0L937.2 0C914.3 0 868.7 0 823 0C777.3 0 731.7 0 686 0C640.3 0 594.7 0 548.8 0C503 0 457 0 411.2 0C365.3 0 319.7 0 274 0C228.3 0 182.7 0 137 0C91.3 0 45.7 0 22.8 0L0 0Z" fill="#dd3f31"></path></svg>